<svg xmlns="http://www.w3.org/2000/svg" viewBox="0 0 24 24" fill="currentColor"><path fill-rule="evenodd" d="M1.4 15.2L1.5 14.2L1.7 13.3L2.1 12.4L2.6 11.6L3.2 10.8L4 10.2L4.6 9.8L4.6 10L4.7 10.2L4.7 10.3L5 11L5 11.1L5.2 11.5L5.3 11.5L5.7 12.2L5.7 12.3L5.9 12.4L6.3 13L6.7 13.4L7.4 13.9L7.5 14.1L7.7 14.1L8.3 14.5L8.3 14.6L8.7 14.8L8.7 15L8.7 15.1L8.7 15.3L8.8 16.1L8.8 16.6L8.8 16.7L9 17.4L9.1 17.7L9.2 17.8L9.4 18.5L9.7 19L10.1 19.6L10.2 19.8L10.3 19.9L10.7 20.4L10.8 20.5L10.4 20.7L9.5 21.1L8.6 21.3L7.6 21.4L6.6 21.3L5.7 21.1L4.8 20.7L4 20.2L3.2 19.6L2.6 18.8L2.1 18L1.7 17.1L1.5 16.2ZM5.8 7.7L5.9 6.8L6.1 5.9L6.5 5L7 4.2L7.6 3.4L8.4 2.8L9.2 2.3L10.1 1.9L11 1.7L12 1.6L13 1.7L13.9 1.9L14.8 2.3L15.6 2.8L16.4 3.4L17 4.2L17.5 5L17.9 5.9L18.1 6.8L18.2 7.7L17.9 7.7L17.4 7.6L17.3 7.6L16.6 7.5L16.5 7.5L16.3 7.5L15.4 7.6L15.3 7.6L14.9 7.7L14.2 7.8L14 7.9L13.8 8L13.2 8.2L13.1 8.2L12.7 8.5L12.6 8.5L12 8.9L11.9 8.9L11.3 8.5L11.3 8.4L10.8 8.2L10.1 7.9L10 7.9L9.8 7.8L9.1 7.7L9 7.6L8.6 7.6L8.5 7.6L7.8 7.5L7.6 7.5L7.4 7.5L6.7 7.6L6.2 7.6L6.1 7.7ZM13.2 20.5L13.2 20.5L13.3 20.4L13.7 19.9L13.8 19.8L13.9 19.6L14.3 19L14.6 18.5L14.8 17.8L14.9 17.7L15 17.5L15.2 16.7L15.2 16.6L15.2 16.1L15.3 15.3L15.3 15.1L15.3 15L15.3 14.8L15.7 14.6L15.7 14.5L16.3 14.1L16.5 14.1L16.6 13.9L17.3 13.4L17.7 13L18.1 12.4L18.3 12.3L18.3 12.2L18.7 11.5L18.8 11.5L19 11.1L19 11L19.3 10.3L19.3 10.2L19.4 10L19.4 9.8L20 10.2L20.8 10.8L21.4 11.6L21.9 12.4L22.3 13.3L22.5 14.2L22.6 15.2L22.5 16.2L22.3 17.1L21.9 18L21.4 18.8L20.8 19.6L20 20.2L19.2 20.7L18.3 21.1L17.4 21.3L16.4 21.4L15.4 21.3L14.5 21.1L13.6 20.7Z" opacity=".38"/><path fill-rule="evenodd" d="M6 9.2L6.6 9.1L7.6 9L8.6 9.1L9.5 9.3L10.4 9.7L11.2 10.2L12 10.8L12.8 10.2L13.6 9.7L14.5 9.3L15.4 9.1L16.4 9L17.4 9.1L18 9.2L17.9 9.7L17.5 10.6L17 11.4L16.4 12.2L15.6 12.8L14.8 13.3L13.9 13.7L13.6 13.8L13.7 14.2L13.8 15.2L13.7 16.2L13.5 17.1L13.1 18L12.6 18.8L12 19.6L11.4 18.8L10.9 18L10.5 17.1L10.3 16.2L10.2 15.2L10.3 14.2L10.4 13.8L10.1 13.7L9.2 13.3L8.4 12.8L7.6 12.2L7 11.4L6.5 10.6L6.1 9.7Z"/></svg>