<svg xmlns="http://www.w3.org/2000/svg" viewBox="0 0 24 24" fill="currentColor"><path fill-rule="evenodd" d="M9.6 15.9L12.2 15.9L12.2 19L12.3 19.2L12.4 19.3L12.6 19.4L19 19.4L19.2 19.3L19.3 19.2L19.4 19L19.4 12.6L19.3 12.4L19.2 12.3L19 12.2L15.9 12.2L15.9 9.6L20.6 9.6L21 9.7L21.4 9.9L21.7 10.2L21.9 10.6L22 11L22 20.6L21.9 21L21.7 21.4L21.4 21.7L21 21.9L20.6 22L11 22L10.6 21.9L10.2 21.7L9.9 21.4L9.7 21L9.6 20.6Z" opacity=".38"/><path fill-rule="evenodd" d="M3.4 2H13A1.4 1.4 0 0 1 14.4 3.4V13A1.4 1.4 0 0 1 13 14.4H3.4A1.4 1.4 0 0 1 2 13V3.4A1.4 1.4 0 0 1 3.4 2Z"/></svg>