<svg xmlns="http://www.w3.org/2000/svg" viewBox="0 0 24 24" fill="currentColor"><path fill-rule="evenodd" d="M2.6 20.8L2.7 20.4L2.8 20.1L3.1 19.8L3.4 19.7L3.8 19.6L4.4 19.6L4.5 19.6L4.7 19.6L7.5 19.6L7.6 19.6L7.8 19.6L16.2 19.6L16.3 19.6L16.4 19.6L19.3 19.6L19.4 19.6L19.5 19.6L20.2 19.6L20.6 19.7L20.9 19.8L21.2 20.1L21.3 20.4L21.4 20.8L21.3 21.2L21.2 21.5L20.9 21.8L20.6 21.9L20.2 22L3.8 22L3.4 21.9L3.1 21.8L2.8 21.5L2.7 21.2Z" opacity=".38"/><path fill-rule="evenodd" d="M4.6 18.1L10.2 2.7L13.8 2.7L19.4 18.1L16.3 18.1L15 14.3L9 14.3L7.7 18.1ZM10 11.7L12 6.6L14 11.7Z"/></svg>